<svg width="152" height="152" viewBox="0 0 152 152" fill="none" xmlns="http://www.w3.org/2000/svg">
<path d="M90.0687 137.633C124.163 129.808 145.458 95.8266 137.633 61.7326C129.808 27.6386 95.8266 6.34323 61.7326 14.168C27.6386 21.9928 6.34325 55.9747 14.168 90.0687C21.9928 124.163 55.9747 145.458 90.0687 137.633Z" stroke="#FFFBEB" stroke-width="2.6844" stroke-miterlimit="10"/>
<path d="M75.8762 18.4688C107.594 18.4688 133.307 44.1807 133.307 75.8984C133.307 90.3045 128.002 103.471 119.24 113.553V47.4648H107V124.182C106.431 124.549 105.855 124.906 105.272 125.254V50.0273L104.343 51.5762L76.5822 97.8721H75.3791L47.4064 51.5459L46.4787 50.0098V125.254C45.8954 124.906 45.3189 124.549 44.7502 124.182V47.4648H32.5109V113.552C23.7496 103.469 18.4465 90.3038 18.4465 75.8984C18.4466 44.1808 44.1585 18.4689 75.8762 18.4688ZM47.4221 48.2236L75.549 94.8066L75.9787 95.5176L76.4064 94.8047L104.338 48.2217L104.792 47.4648H93.591V47.8525L75.8762 81.9639L58.1613 47.8506V47.4648H46.9641L47.4221 48.2236Z" fill="#FFFBEB" stroke="#FFFBEB"/>
<path d="M65.7074 101.993L65.848 102.262H85.9056L86.0453 101.993L93.5912 87.4625V130.525C88.0092 132.335 82.0609 133.33 75.8763 133.33C69.6918 133.33 63.7435 132.335 58.1615 130.525V87.4606L65.7074 101.993Z" fill="#FFFBEB" stroke="#FFFBEB"/>
</svg>
